# xmcd
#
# Track frame offsets:
#	150
#	13072
#	26987
#	43780
#	62469
#	77019
#	89773
#	105935
#	123547
#	138870
#	158403
#	173481
#	187241
#	199829
#	211916
#	226171
#	244508
#	264472
#
# Disc length: 3753 seconds
#
# Revision: 1
# Processed by: cddbd v1.5.2PL0 Copyright (c) Steve Scherf et al.
# Submitted via: audiograbber 1.83.01
#
DISCID=ea0ea712
DTITLE=M T M - M T M 019
DYEAR=2006
DGENRE=Country
TTITLE0=The Devil In Me  - Clear Blue 22
TTITLE1=Shots In The Dark  - Randy Archer
TTITLE2=Nothing To Do With Love  - Jana Kay
TTITLE3=Gone (but Not Forgotton)  - Desert Heat
TTITLE4=Better Every Beer  - Billy Yates
TTITLE5=Swear To Me You´ll Lie  - Shane Powell
TTITLE6=Move On  - Beth Wimmer
TTITLE7=Jack And Coke  - Sean Kristopher
TTITLE8=Love Happens  - Aimee Pettersen
TTITLE9=Louise  - Ray William Roldan
TTITLE10=The Circle Is Small  - Karen Lynne
TTITLE11=You Can´t Eat That  - Chris Gilburg
TTITLE12=Pink Cadillac  - Elvis Aaron Presley Jr
TTITLE13=Im Wonna Be The Womman  - Mia
TTITLE14=I Heard My Father Say  - Peter Dean
TTITLE15=Don´t Give Up On Me  - Victoria Boland
TTITLE16=Love You Back Into Love  - Tin Ridge Band
TTITLE17=It´s Dawning On Me  - Liz Daniels
EXTD=
EXTT0=
EXTT1=
EXTT2=
EXTT3=
EXTT4=
EXTT5=
EXTT6=
EXTT7=
EXTT8=
EXTT9=
EXTT10=
EXTT11=
EXTT12=
EXTT13=
EXTT14=
EXTT15=
EXTT16=
EXTT17=
PLAYORDER=
